<svg xmlns="http://www.w3.org/2000/svg" width="60.777" height="54.557" viewBox="0 0 60.777 54.557">
  <g id="Group_7005" data-name="Group 7005" transform="translate(-1271.507 -5077.538)">
    <path id="_002-headphones" data-name="002-headphones" d="M60.777,51.509a30.389,30.389,0,1,0-59.571,8.5A11.448,11.448,0,0,0,19.469,72.771a3.291,3.291,0,0,0,.821.107,3.254,3.254,0,0,0,2.316-.959L24.321,70.2a3.279,3.279,0,0,0,0-4.631L10.5,51.754a3.275,3.275,0,0,0-4.632,0L4.157,53.469A3.253,3.253,0,0,0,3.2,55.785a3.291,3.291,0,0,0,.107.821c-.181.2-.351.411-.515.622a28.2,28.2,0,0,1,9.929-27.652l.394.616a3.679,3.679,0,0,0,3.1,1.682,3.616,3.616,0,0,0,1.9-.533,23.575,23.575,0,0,1,24.563,0,3.684,3.684,0,0,0,5-1.15l.393-.615a28.2,28.2,0,0,1,9.929,27.65c-.164-.211-.335-.419-.515-.62a3.291,3.291,0,0,0,.107-.821,3.253,3.253,0,0,0-.959-2.316l-1.715-1.716a3.279,3.279,0,0,0-4.632,0L36.456,65.571a3.279,3.279,0,0,0,0,4.631l1.715,1.715a3.254,3.254,0,0,0,2.316.959,3.288,3.288,0,0,0,.821-.107A11.453,11.453,0,0,0,59.574,60,30.379,30.379,0,0,0,60.777,51.509ZM5.312,70.763a9.253,9.253,0,0,1-.733-12.24L17.552,71.5a9.239,9.239,0,0,1-12.24-.733Zm.407-15.732,1.715-1.715a1.066,1.066,0,0,1,1.508,0L22.759,67.133a1.067,1.067,0,0,1,0,1.508l-1.715,1.715a1.066,1.066,0,0,1-1.508,0L5.718,56.539a1.066,1.066,0,0,1,0-1.508ZM45.805,29a1.462,1.462,0,0,1-1.983.456,25.783,25.783,0,0,0-26.868,0A1.461,1.461,0,0,1,14.972,29l-.478-.747a28.12,28.12,0,0,1,31.79,0ZM39.734,70.357l-1.715-1.715a1.067,1.067,0,0,1,0-1.508L51.836,53.316a1.068,1.068,0,0,1,1.508,0l1.715,1.716a1.066,1.066,0,0,1,0,1.508L41.242,70.357a1.066,1.066,0,0,1-1.508,0Zm15.732.407a9.24,9.24,0,0,1-12.24.733L56.2,58.523a9.238,9.238,0,0,1-.733,12.241Z" transform="translate(1271.507 5056.417)" fill="#191919"/>
  </g>
</svg>
