<svg xmlns="http://www.w3.org/2000/svg" width="55.657" height="59.632" viewBox="0 0 55.657 59.632">
  <g id="Group_7003" data-name="Group 7003" transform="translate(-959.119 -5075)">
    <path id="Path_3023" data-name="Path 3023" d="M14.994,18.988H27.745a.994.994,0,0,0,0-1.988H14.994a.994.994,0,1,0,0,1.988Z" transform="translate(957.315 5074.896)" fill="#191919"/>
    <path id="Path_3024" data-name="Path 3024" d="M14.994,25.988h6.238a.994.994,0,0,0,0-1.988H14.994a.994.994,0,1,0,0,1.988Z" transform="translate(957.315 5074.853)" fill="#191919"/>
    <path id="Path_3025" data-name="Path 3025" d="M25.994,25.988h9.495a.994.994,0,1,0,0-1.988H25.994a.994.994,0,1,0,0,1.988Z" transform="translate(956.697 5074.853)" fill="#191919"/>
    <path id="Path_3028" data-name="Path 3028" d="M14,31.994a.993.993,0,0,0,.994.994H27.026a.994.994,0,0,0,0-1.988H14.994A.993.993,0,0,0,14,31.994Z" transform="translate(957.484 5074.81)" fill="#191919"/>
    <path id="Path_3030" data-name="Path 3030" d="M20.487,37.136c-2.177,1.133-2.909,3.3-3.176,5.548L16.077,41.65c-.974-.816-2.387.582-1.405,1.406l2.789,2.337a1.008,1.008,0,0,0,1.7-.7c.073-2.153.174-4.713,2.334-5.837C22.626,38.261,21.622,36.545,20.487,37.136Z" transform="translate(957.312 5074.773)" fill="#191919"/>
    <path id="Path_3031" data-name="Path 3031" d="M27.14,41.123c-1.377.319-2.943,2.07-3.912.105-.566-1.147-2.281-.141-1.716,1a3.443,3.443,0,0,0,2.653,1.92,3.319,3.319,0,0,0,1.678-.225c.406-.158,1.925-1.3,2.253-.713.624,1.117,2.342.116,1.716-1A2.362,2.362,0,0,0,27.14,41.123Z" transform="translate(957.269 5074.75)" fill="#191919"/>
    <path id="Path_3032" data-name="Path 3032" d="M54.69,0h-4A2.961,2.961,0,0,0,47.9,1.988H31.816V.994A.993.993,0,0,0,30.822,0H21.877a.993.993,0,0,0-.994.994v.994H2V59.632H50.7V55.176l.994,1.739v1.723a.994.994,0,1,0,1.988,0V56.915l3.976-6.957V2.967A2.97,2.97,0,0,0,54.69,0ZM49.706,8.945h5.963v1.988H49.706ZM29.828,1.988V4.969H22.871V1.988ZM20.884,3.975V6.957H31.816V3.975h4.969V7.951H15.914V3.975ZM14.92,9.939H38.773V8.945h4.969v43.73H8.957V8.945h4.969v.994ZM48.712,57.645H3.988V3.975h9.939V6.957H6.969V54.663H45.73V6.957H38.773V3.975h8.945V49.958l.994,1.739Zm1.712-6.957h4.526l-2.263,3.96L50.7,51.169ZM55.669,48.7H49.706V12.92h5.963ZM49.706,6.957V2.967a.98.98,0,0,1,.979-.979h4a.98.98,0,0,1,.98.979v3.99Z" transform="translate(957.119 5075)" fill="#191919"/>
  </g>
</svg>
