<svg xmlns="http://www.w3.org/2000/svg" width="59.707" height="50.751" viewBox="0 0 59.707 50.751">
  <g id="Group_7004" data-name="Group 7004" transform="translate(-1114.179 -5078.806)">
    <g id="Group_1937" data-name="Group 1937" transform="translate(1114.179 5078.806)">
      <g id="Group_1936" data-name="Group 1936">
        <path id="Path_3006" data-name="Path 3006" d="M57.717,38.4H9.951a1.992,1.992,0,0,0-1.99,1.99v1.99H5.971a1.992,1.992,0,0,0-1.99,1.99v1.99H1.99A1.992,1.992,0,0,0,0,48.351v38.81a1.992,1.992,0,0,0,1.99,1.99H49.756a1.992,1.992,0,0,0,1.99-1.99v-1.99h1.99a1.992,1.992,0,0,0,1.99-1.99V81.19h1.99a1.992,1.992,0,0,0,1.99-1.99V40.39A1.992,1.992,0,0,0,57.717,38.4ZM1.99,48.351H49.756V70.582l-5.222-5.969a1.025,1.025,0,0,0-1.5,0l-6.305,7.206L19.568,56.564a.992.992,0,0,0-1.321,0L1.99,71.014ZM49.758,84.184v2.976H1.99V73.675L18.907,58.638,36.159,73.972a1.044,1.044,0,0,0,.723.25.993.993,0,0,0,.687-.338l6.217-7.1,5.972,6.826V84.168s0,.005,0,.008S49.758,84.182,49.758,84.184Zm3.978-1h-1.99V48.351a1.992,1.992,0,0,0-1.99-1.99H5.971v-1.99H53.736Zm3.98-3.98h-1.99V44.371a1.992,1.992,0,0,0-1.99-1.99H9.951V40.39H57.717Z" transform="translate(0 -38.4)" fill="#191919"/>
      </g>
    </g>
    <g id="Group_1939" data-name="Group 1939" transform="translate(1146.023 5094.728)">
      <g id="Group_1938" data-name="Group 1938">
        <path id="Path_3007" data-name="Path 3007" d="M277.047,174.933a3.98,3.98,0,1,0,3.98,3.981A3.984,3.984,0,0,0,277.047,174.933Zm0,5.971a1.99,1.99,0,1,1,1.99-1.99A1.992,1.992,0,0,1,277.047,180.9Z" transform="translate(-273.067 -174.933)" fill="#191919"/>
      </g>
    </g>
  </g>
</svg>
