<svg xmlns="http://www.w3.org/2000/svg" width="48.218" height="48.22" viewBox="0 0 48.218 48.22">
  <g id="Group_7006" data-name="Group 7006" transform="translate(-1632 -5080.608)">
    <path id="iconmonstr-link-thin" d="M31.359,24.941a8.774,8.774,0,0,0-14.646-3.833L5.758,32.062a8.767,8.767,0,0,0,12.4,12.4l8.421-8.419.73.02a13.351,13.351,0,0,0,2.606-.256L19.7,46.011a10.958,10.958,0,0,1-15.5-15.5L15.163,19.558a10.962,10.962,0,0,1,17.92,3.665l-1.725,1.718Zm-12.5.322A8.769,8.769,0,0,0,33.5,29.112L44.461,18.157a8.767,8.767,0,0,0-12.4-12.4l-8.419,8.419-.73-.02a13.352,13.352,0,0,0-2.606.256L30.513,4.209a10.959,10.959,0,1,1,15.5,15.5L35.054,30.662a10.959,10.959,0,0,1-17.922-3.678l1.727-1.721Z" transform="translate(1631 5079.608)" fill="#191919" fill-rule="evenodd"/>
  </g>
</svg>
