<svg xmlns="http://www.w3.org/2000/svg" width="100" height="100" viewBox="0 0 100 100">
  <g id="Group_5982" data-name="Group 5982" transform="translate(-538 -10518)">
    <rect id="Rectangle_1562" data-name="Rectangle 1562" width="100" height="100" transform="translate(538 10518)" fill="#f1f1ef"/>
    <g id="Group_3186" data-name="Group 3186" transform="translate(562 10541)">
      <path id="Path_2620" data-name="Path 2620" d="M54.99,38.059c-.328-.764-.633-1.289-1.507-1.507-.328-1.42,0-1.4,0-1.507.109-.218,0,.109,0,0a2.767,2.767,0,0,0-1.507-4.521,19.077,19.077,0,0,0-4.521-3.014c-.874-.437.764.437,0,0-.218-1.092-1.179-4.281-1.507-6.028-.328-1.529-.633-2.359-1.507-3.014-.437-.874-.852-.852-1.507-1.507,3.057-4.586,3.691-9.653,1.507-12.055A6.145,6.145,0,0,0,39.921,3.4c-2.512,0-4.477,1.158-7.535,3.014,0,0-2.9-1.507-3.014-1.507C20.855-1.754-3.255,27.1,5.262,33.538l3.014,1.507c-1.42,3.822.481,9.129,4.521,10.548.874.328,2.031,0,3.014,0,0,0,5.94,12.055,19.59,12.055,15.724,0,19.59-14.96,19.59-15.069C54.881,42.689,55.645,39.588,54.99,38.059ZM6.769,32.031c-1.638-2.948.83-8.561,3.014-12.055C15.024,11.568,23.825,3.924,27.866,4.907h1.507s2.9,3.014,3.014,3.014c2.075-1.2,3.625-2.8,6.028-3.014-1.529.328-2.337,1.7-4.521,3.014,0,0-5.984,2.97-9.042,6.028-1.638,1.638-7.535,9.151-7.535,9.042,1.2-2.293,1.048-3.625,3.014-6.028,1.092-1.42,3.32-1.7,4.521-3.014a19.606,19.606,0,0,1,1.507-1.507c.437-.328,1.07-1.179,1.507-1.507h0L23.345,7.921h1.507l1.507,3.014a35.744,35.744,0,0,1-3.014,3.014c-5.132,4.368-10.2,11.641-12.055,18.083h0c-.874.546-2.249.415-3.014,1.507C7.948,33.648,7.1,32.577,6.769,32.031ZM14.3,44.087c-3.057,0-4.521-2.861-4.521-6.028s1.572-6.028,4.521-6.028c.764,0,2.359,1.289,3.014,1.507,0,0,1.179.175,1.507,3.014h0a1.963,1.963,0,0,0,0-1.507c.437,1.2,0,1.813,0,3.014h0a18.913,18.913,0,0,1,1.507-1.507C20.986,40.265,17.8,44.087,14.3,44.087Zm7.535-21.1h0a21.9,21.9,0,0,1,7.535-7.535c-.437-.109-1.289,1.507-1.507,1.507.983-.764,1.813-2.686,3.014-3.014-.328-.218-1.07,0-1.507,0h0c1.092-.655,2.664-.328,4.521,0-.218-.328.437-1.4,0-1.507h0c1.2-.218,1.922,1.07,3.014,1.507-.109-.328-1.289-1.289-1.507-1.507h0a9.76,9.76,0,0,1,3.014,1.507c-.109-.218.218-1.289,0-1.507a6.7,6.7,0,0,1,3.014,3.014h0c-2.075-1.529-7.666-.808-13.562,3.014C25.245,20.216,23.367,20.915,21.838,22.99ZM53.483,41.073a11.231,11.231,0,0,1-4.521,7.535c-5.351,4.259-13.846,3.909-16.576,1.507A4.817,4.817,0,0,1,30.88,47.1a6.627,6.627,0,0,1,0,1.507,15.114,15.114,0,0,1-1.507-4.521,2.211,2.211,0,0,1,0,1.507,11.866,11.866,0,0,0-1.507-3.014h0a3.333,3.333,0,0,1,0-3.014,14.011,14.011,0,0,1,3.014-4.521,18.206,18.206,0,0,1-3.014-1.507h1.507s-2.577-2.009-3.014-4.521a18.913,18.913,0,0,0,1.507,1.507,6.694,6.694,0,0,1,0-3.014h0c.437-2.73,2.009-4.521,4.521-4.521,2.73,0,5.242.568,7.535-1.507.437-.437.852-1.4,1.507-1.507h0c.328,0,1.179-.218,1.507,0,1.2.764,1.4,3.1,1.507,4.521.546,5.241.939,3.429,3.014,4.521.983.546,1.7,1.594,3.014,3.014h0c1.092,0,1.944.852,1.507,1.507-3.713,4.368-9.391,5.809-15.069,6.028h0c-2.293.109-2.926,4.281-1.507,6.028A3.329,3.329,0,0,0,38.414,47.1h0c6.224.109,12.47-5.023,13.562-7.535h0c-.218.328-6.137,6.246-13.562,6.028a3.019,3.019,0,0,1-1.507,0c-.983-.218-1.179-.524-1.507-1.507a6.871,6.871,0,0,0,1.507,0c5.351,0,9.369-2.9,9.042-3.014h0c-.655.109-6.508,2.817-10.548,1.507,0-.109-.109.109,0,0,.328-1.2.415-1.507,1.507-1.507h0a25.515,25.515,0,0,0,9.042-1.507c2.4-1.092,3.866-3.756,4.521-4.521a18.709,18.709,0,0,1,1.507,4.521h1.507C54.794,39.675,54.466,39.763,53.483,41.073Z" transform="translate(-3.468 -3.4)" fill="#0d0d0d"/>
      <path id="Path_2621" data-name="Path 2621" d="M25.59,7.964h0v0Z" transform="translate(-1.192 -3.444)" fill="#0d0d0d"/>
      <path id="Path_2622" data-name="Path 2622" d="M28.675,7.391H27.169V8.9A19.606,19.606,0,0,1,28.675,7.391Z" transform="translate(-1.264 -2.87)" fill="#0d0d0d"/>
      <path id="Path_2623" data-name="Path 2623" d="M38.263,25.923c.655,0,.961-.218,1.507,0,0-1.529-.852-3.232-1.507-3.014h0c-.437.109,0,1.07,0,1.507C38.263,24.962,38.045,25.486,38.263,25.923Z" transform="translate(-0.302 -1.813)" fill="#0d0d0d"/>
      <path id="Path_2624" data-name="Path 2624" d="M27.522,9.174,24.508,7.667l1.507,1.507C26.342,8.955,27.194,9.392,27.522,9.174Z" transform="translate(-1.617 -3.146)" fill="#0d0d0d"/>
      <path id="Path_2625" data-name="Path 2625" d="M33.063,28.465a2.211,2.211,0,0,0,1.507,0h0c-.328-.437-.961-1.4-1.507-1.507-1.2-.437-2.031-.874-3.014,0-.546.437-1.725,1.507-1.507,1.507a6.769,6.769,0,0,0,1.507,0C31.8,27.7,31.752,27.919,33.063,28.465Z" transform="translate(-1.131 -1.341)" fill="#0d0d0d"/>
      <path id="Path_2626" data-name="Path 2626" d="M32.616,29.817h1.507a1.469,1.469,0,0,0-1.507-1.507H31.109c-.218.109.218,1.289,0,1.507s-.109-.109,0,0-.328.109,0,0C32.092,29.489,31.961,29.817,32.616,29.817Z" transform="translate(-0.683 -1.186)" fill="#0d0d0d"/>
      <path id="Path_2627" data-name="Path 2627" d="M10.515,35.294Z" transform="translate(-2.693 -0.635)" fill="#0d0d0d"/>
      <path id="Path_2628" data-name="Path 2628" d="M15.04,33.746c.328.437,1.4-.109,1.507,0h0c.218-.109,0,.218,0,0h0c0-.437.328-1.179,0-1.507h0c-.437-.437-2.249.109-3.014,0a3.257,3.257,0,0,0-1.507,0h0c-.109,0,.109-.109,0,0-1.747.655-1.835,1.376-1.507,3.014.109.437-.218,1.179,0,1.507h0c.328.437,1.725.328,1.507,0,0-.109-1.4-.852-1.507-1.507,0-.764.961-.852,1.507-1.507.328-.437-.109-1.507,0-1.507h1.507C14.843,32.021,14.712,33.2,15.04,33.746Z" transform="translate(-2.698 -0.593)" fill="#0d0d0d"/>
      <path id="Path_2629" data-name="Path 2629" d="M14.931,35.336c-.109-.109,0,.109,0,0,0-.218-.218-1.4,0-1.507.109-.109,0,.109,0,0s.437-.328,0,0a1.131,1.131,0,0,0,0,1.507c.546.546,1.4.852,1.507,1.507h0c-.109.655-1.922,1.725-3.014,1.507h0c-.109.109.633,1.616,1.507,1.507,1.2,0,1.725-1.7,1.507-3.014C16.329,35.751,15.368,35.664,14.931,35.336Z" transform="translate(-2.589 -0.677)" fill="#0d0d0d"/>
      <ellipse id="Ellipse_104" data-name="Ellipse 104" cx="0.764" cy="0.546" rx="0.764" ry="0.546" transform="translate(39.367 27.564) rotate(-81.136)" fill="#0d0d0d"/>
      <ellipse id="Ellipse_105" data-name="Ellipse 105" cx="0.655" cy="0.874" rx="0.655" ry="0.874" transform="matrix(0.481, -0.877, 0.877, 0.481, 36.374, 27.911)" fill="#0d0d0d"/>
    </g>
  </g>
</svg>
