<svg xmlns="http://www.w3.org/2000/svg" width="62.144" height="50.751" viewBox="0 0 62.144 50.751">
  <g id="Group_7001" data-name="Group 7001" transform="translate(-477.253 -5079.881)">
    <path id="Path_3010" data-name="Path 3010" d="M57.174,15.857H48.345L44.2,5.5H17.942L13.8,15.857h-1.37V10.679H6.214v5.179H4.97A4.975,4.975,0,0,0,0,20.828V51.245a5.011,5.011,0,0,0,5.006,5.006H57.138a5.011,5.011,0,0,0,5.006-5.006V20.828A4.975,4.975,0,0,0,57.174,15.857ZM8.286,12.75h2.071v3.107H8.286Zm51.787,38.5a2.937,2.937,0,0,1-2.934,2.934H5.006a2.938,2.938,0,0,1-2.934-2.934V20.828a2.9,2.9,0,0,1,2.9-2.9H15.2L19.344,7.571H42.8l4.143,10.357H57.174a2.9,2.9,0,0,1,2.9,2.9V51.245Z" transform="translate(477.253 5074.381)" fill="#191919"/>
    <path id="Path_3011" data-name="Path 3011" d="M30.643,14.5A18.643,18.643,0,1,0,49.286,33.143,18.665,18.665,0,0,0,30.643,14.5Zm0,35.215A16.572,16.572,0,1,1,47.215,33.143,16.591,16.591,0,0,1,30.643,49.715Z" transform="translate(477.682 5074.703)" fill="#191919"/>
    <path id="Path_3012" data-name="Path 3012" d="M30.429,20.5A12.429,12.429,0,1,0,42.858,32.929,12.443,12.443,0,0,0,30.429,20.5Zm0,22.786A10.357,10.357,0,1,1,40.786,32.929,10.369,10.369,0,0,1,30.429,43.286Z" transform="translate(477.896 5074.918)" fill="#191919"/>
    <path id="Path_3013" data-name="Path 3013" d="M52.143,19.5a4.143,4.143,0,1,0,4.143,4.143A4.147,4.147,0,0,0,52.143,19.5Zm0,6.214a2.071,2.071,0,1,1,2.071-2.071A2.074,2.074,0,0,1,52.143,25.714Z" transform="translate(478.968 5074.882)" fill="#191919"/>
  </g>
</svg>
