<svg id="Group_1935" data-name="Group 1935" xmlns="http://www.w3.org/2000/svg" width="56.317" height="54.558" viewBox="0 0 56.317 54.558">
  <g id="Group_1934" data-name="Group 1934" transform="translate(0 0)">
    <path id="Path_2998" data-name="Path 2998" d="M53.026,56.144l-.44,1.7A2.64,2.64,0,0,1,54.557,60.4V92.078a2.64,2.64,0,0,1-2.64,2.64h-14.7a.88.88,0,0,0-.553.2l-9.39,7.633V95.6a.88.88,0,0,0-.88-.88H4.4a2.64,2.64,0,0,1-2.64-2.64V60.4A2.64,2.64,0,0,1,4.4,57.76h.88V56H4.4A4.405,4.405,0,0,0,0,60.4V92.078a4.405,4.405,0,0,0,4.4,4.4H25.519v7.92a.88.88,0,0,0,1.435.683l10.582-8.6H51.917a4.405,4.405,0,0,0,4.4-4.4V60.4A4.4,4.4,0,0,0,53.026,56.144Z" transform="translate(0 -50.72)" fill="#191919"/>
    <path id="Path_2999" data-name="Path 2999" d="M68.4,39.678H79.839v4.4a.88.88,0,0,0,.543.813.869.869,0,0,0,.337.067.88.88,0,0,0,.622-.258l5.028-5.022H103.6a4.405,4.405,0,0,0,4.4-4.4V12.4A4.405,4.405,0,0,0,103.6,8H68.4A4.405,4.405,0,0,0,64,12.4V35.279A4.405,4.405,0,0,0,68.4,39.678ZM65.76,12.4A2.64,2.64,0,0,1,68.4,9.76h35.2a2.64,2.64,0,0,1,2.64,2.64V35.279a2.64,2.64,0,0,1-2.64,2.64H86.005a.88.88,0,0,0-.622.253L81.6,41.956V38.8a.88.88,0,0,0-.88-.88H68.4a2.64,2.64,0,0,1-2.64-2.64Z" transform="translate(-56.96 -8)" fill="#191919"/>
    <rect id="Rectangle_2067" data-name="Rectangle 2067" width="26.399" height="1.76" transform="translate(13.199 6.16)" fill="#191919"/>
    <rect id="Rectangle_2068" data-name="Rectangle 2068" width="31.678" height="1.76" transform="translate(13.199 12.319)" fill="#191919"/>
    <rect id="Rectangle_2069" data-name="Rectangle 2069" width="31.678" height="1.76" transform="translate(13.199 18.479)" fill="#191919"/>
    <rect id="Rectangle_2070" data-name="Rectangle 2070" width="24.639" height="1.76" transform="translate(13.199 24.639)" fill="#191919"/>
  </g>
</svg>
