<svg xmlns="http://www.w3.org/2000/svg" width="100" height="100" viewBox="0 0 100 100">
  <g id="Group_5979" data-name="Group 5979" transform="translate(-538 -10256)">
    <rect id="Rectangle_1560" data-name="Rectangle 1560" width="100" height="100" transform="translate(538 10256)" fill="#d20001"/>
    <g id="Group_5974" data-name="Group 5974" transform="translate(566 10283)">
      <path id="Path_3088" data-name="Path 3088" d="M46.247,2.719a.988.988,0,0,0-1.08.215L41.049,7.053A23.008,23.008,0,0,0,24.423,0,23.237,23.237,0,0,0,1.912,17.455a.99.99,0,0,0,.959,1.238H9.179a.99.99,0,0,0,.93-.65A15.2,15.2,0,0,1,24.415,8a15.081,15.081,0,0,1,10.979,4.7L31.211,16.89a.99.99,0,0,0,.7,1.691H45.868a.991.991,0,0,0,.991-.991V3.634A.992.992,0,0,0,46.247,2.719Z" transform="translate(-1.88)" fill="#fff"/>
      <path id="Path_3089" data-name="Path 3089" d="M45.361,56.328H39.053a.99.99,0,0,0-.93.65A15.2,15.2,0,0,1,23.817,67.016a15.08,15.08,0,0,1-10.979-4.7L17.02,58.13a.99.99,0,0,0-.7-1.691H2.365a.991.991,0,0,0-.991.991V71.386a.99.99,0,0,0,1.691.7l4.119-4.118a23.008,23.008,0,0,0,16.625,7.053A23.237,23.237,0,0,0,46.32,57.566a.99.99,0,0,0-.959-1.238Z" transform="translate(-1.374 -28.431)" fill="#fff"/>
    </g>
  </g>
</svg>
