<svg xmlns="http://www.w3.org/2000/svg" width="51.814" height="58.364" viewBox="0 0 51.814 58.364">
  <g id="Group_7000" data-name="Group 7000" transform="translate(-225 -5075.075)">
    <path id="Path_3015" data-name="Path 3015" d="M67.906,47.726A.929.929,0,0,0,68.253,47V4.657a.931.931,0,0,0-.931-.931H40.377a5.277,5.277,0,0,0-10.088,0H27.305a.931.931,0,0,0-.931.931V57.432a.931.931,0,0,0,.931.931H56.883a.934.934,0,0,0,.733-.347ZM57.822,55.176V47.933h7.243ZM35.333,1.863a3.418,3.418,0,0,1,3.04,1.863H32.293A3.434,3.434,0,0,1,35.333,1.863Zm-7.1,3.725H38.748v6.519a1.552,1.552,0,0,1-3.1,0V8.382a.931.931,0,1,0-1.863,0v3.725a3.415,3.415,0,1,0,6.83,0V5.588h25.78V46.07h-9.5A.931.931,0,0,0,55.96,47v9.5H28.237Z" transform="translate(198.626 5075.075)" fill="#191919"/>
    <path id="Path_3016" data-name="Path 3016" d="M112.421,332.363a.931.931,0,1,0,0-1.863H87.305a.931.931,0,0,0,0,1.863Z" transform="translate(146.077 4785.616)" fill="#191919"/>
    <path id="Path_3017" data-name="Path 3017" d="M87.305,287.363h25.115a.931.931,0,1,0,0-1.863H87.305a.931.931,0,0,0,0,1.863Z" transform="translate(146.077 4825.028)" fill="#191919"/>
    <path id="Path_3018" data-name="Path 3018" d="M87.305,242.363h25.115a.931.931,0,1,0,0-1.863H87.305a.931.931,0,1,0,0,1.863Z" transform="translate(146.077 4864.439)" fill="#191919"/>
    <path id="Path_3019" data-name="Path 3019" d="M87.305,197.363h25.115a.931.931,0,1,0,0-1.863H87.305a.931.931,0,0,0,0,1.863Z" transform="translate(146.077 4903.852)" fill="#191919"/>
    <path id="Path_3020" data-name="Path 3020" d="M87.305,152.363h25.115a.931.931,0,1,0,0-1.863H87.305a.931.931,0,0,0,0,1.863Z" transform="translate(146.077 4943.264)" fill="#191919"/>
    <path id="Path_3021" data-name="Path 3021" d="M312.86,30h-1.242a.931.931,0,1,0,0,1.863h.31V82.776h-9.943a.931.931,0,1,0,0,1.863H312.86a.931.931,0,0,0,.931-.931V30.931A.931.931,0,0,0,312.86,30Z" transform="translate(-41.945 5048.801)" fill="#191919"/>
    <path id="Path_3022" data-name="Path 3022" d="M420.8,30h-1.242a.931.931,0,0,0,0,1.863h.31V82.776h-.31a.931.931,0,0,0,0,1.863H420.8a.931.931,0,0,0,.931-.931V30.931A.931.931,0,0,0,420.8,30Z" transform="translate(-144.917 5048.801)" fill="#191919"/>
  </g>
</svg>
