<svg xmlns="http://www.w3.org/2000/svg" width="59.191" height="46.945" viewBox="0 0 59.191 46.945">
  <g id="Group_7002" data-name="Group 7002" transform="translate(-635.85 -5082.15)">
    <path id="Path_3001" data-name="Path 3001" d="M36.794,28.3,25.569,21.159A1.02,1.02,0,0,0,24,22.021V36.308a1.021,1.021,0,0,0,1.569.861l11.226-7.144a1.021,1.021,0,0,0,0-1.723ZM26.041,34.45V23.879l8.3,5.285Z" transform="translate(636.343 5076.458)" fill="#191919"/>
    <path id="Path_3002" data-name="Path 3002" d="M58.171,6H1.021A1.02,1.02,0,0,0,0,7.021v44.9a1.02,1.02,0,0,0,1.021,1.021h57.15a1.02,1.02,0,0,0,1.021-1.021V7.021A1.02,1.02,0,0,0,58.171,6ZM10.205,28.452H2.041V19.267h8.164ZM2.041,30.493h8.164v9.185H2.041ZM12.246,40.7V8.041h34.7V50.9h-34.7Zm44.9-12.246H48.986V19.267H57.15Zm-8.164,2.041H57.15v9.185H48.986ZM57.15,8.041v9.185H48.986V8.041Zm-55.109,0h8.164v9.185H2.041Zm0,42.863V41.719h8.164V50.9Zm55.109,0H48.986V41.719H57.15Z" transform="translate(635.85 5076.15)" fill="#191919"/>
  </g>
</svg>
