<svg xmlns="http://www.w3.org/2000/svg" width="100" height="100" viewBox="0 0 100 100">
  <g id="Group_5981" data-name="Group 5981" transform="translate(-334 -10518)">
    <rect id="Rectangle_1572" data-name="Rectangle 1572" width="100" height="100" transform="translate(334 10518)" fill="#3517c6"/>
    <g id="Group_3187" data-name="Group 3187" transform="translate(351 10535)">
      <g id="Group_1147" data-name="Group 1147">
        <path id="Path_2588" data-name="Path 2588" d="M361.9,164.567l-.827,2.479-2.613.02a.352.352,0,0,0-.206.635l2.1,1.552-.788,2.491a.352.352,0,0,0,.54.393l2.126-1.519,2.126,1.519a.352.352,0,0,0,.54-.393l-.788-2.491,2.1-1.552a.352.352,0,0,0-.206-.635l-2.613-.02-.827-2.479A.352.352,0,0,0,361.9,164.567Z" transform="translate(-303.085 -149.256)" fill="#fc5"/>
        <path id="Path_2589" data-name="Path 2589" d="M361.9,164.567l-.827,2.479-2.613.02a.352.352,0,0,0-.206.635l2.1,1.552-.788,2.491a.352.352,0,0,0,.54.393l2.126-1.519,2.126,1.519a.352.352,0,0,0,.54-.393l-.788-2.491,2.1-1.552a.352.352,0,0,0-.206-.635l-2.613-.02-.827-2.479A.352.352,0,0,0,361.9,164.567Z" transform="translate(-299.877 -134.186)" fill="#fc5"/>
        <path id="Path_2595" data-name="Path 2595" d="M361.9,164.567l-.827,2.479-2.613.02a.352.352,0,0,0-.206.635l2.1,1.552-.788,2.491a.352.352,0,0,0,.54.393l2.126-1.519,2.126,1.519a.352.352,0,0,0,.54-.393l-.788-2.491,2.1-1.552a.352.352,0,0,0-.206-.635l-2.613-.02-.827-2.479A.352.352,0,0,0,361.9,164.567Z" transform="translate(-358.114 -134.186)" fill="#fc5"/>
        <path id="Path_2590" data-name="Path 2590" d="M361.9,164.567l-.827,2.479-2.613.02a.352.352,0,0,0-.206.635l2.1,1.552-.788,2.491a.352.352,0,0,0,.54.393l2.126-1.519,2.126,1.519a.352.352,0,0,0,.54-.393l-.788-2.491,2.1-1.552a.352.352,0,0,0-.206-.635l-2.613-.02-.827-2.479A.352.352,0,0,0,361.9,164.567Z" transform="translate(-314.436 -109.73)" fill="#fc5"/>
        <path id="Path_2598" data-name="Path 2598" d="M361.9,164.567l-.827,2.479-2.613.02a.352.352,0,0,0-.206.635l2.1,1.552-.788,2.491a.352.352,0,0,0,.54.393l2.126-1.519,2.126,1.519a.352.352,0,0,0,.54-.393l-.788-2.491,2.1-1.552a.352.352,0,0,0-.206-.635l-2.613-.02-.827-2.479A.352.352,0,0,0,361.9,164.567Z" transform="translate(-314.436 -160.317)" fill="#fc5"/>
        <path id="Path_2591" data-name="Path 2591" d="M361.9,164.567l-.827,2.479-2.613.02a.352.352,0,0,0-.206.635l2.1,1.552-.788,2.491a.352.352,0,0,0,.54.393l2.126-1.519,2.126,1.519a.352.352,0,0,0,.54-.393l-.788-2.491,2.1-1.552a.352.352,0,0,0-.206-.635l-2.613-.02-.827-2.479A.352.352,0,0,0,361.9,164.567Z" transform="translate(-328.996 -105.72)" fill="#fc5"/>
        <path id="Path_2599" data-name="Path 2599" d="M361.9,164.567l-.827,2.479-2.613.02a.352.352,0,0,0-.206.635l2.1,1.552-.788,2.491a.352.352,0,0,0,.54.393l2.126-1.519,2.126,1.519a.352.352,0,0,0,.54-.393l-.788-2.491,2.1-1.552a.352.352,0,0,0-.206-.635l-2.613-.02-.827-2.479A.352.352,0,0,0,361.9,164.567Z" transform="translate(-328.996 -164.326)" fill="#fc5"/>
        <path id="Path_2592" data-name="Path 2592" d="M361.9,164.567l-.827,2.479-2.613.02a.352.352,0,0,0-.206.635l2.1,1.552-.788,2.491a.352.352,0,0,0,.54.393l2.126-1.519,2.126,1.519a.352.352,0,0,0,.54-.393l-.788-2.491,2.1-1.552a.352.352,0,0,0-.206-.635l-2.613-.02-.827-2.479A.352.352,0,0,0,361.9,164.567Z" transform="translate(-343.555 -109.73)" fill="#fc5"/>
        <path id="Path_2597" data-name="Path 2597" d="M361.9,164.567l-.827,2.479-2.613.02a.352.352,0,0,0-.206.635l2.1,1.552-.788,2.491a.352.352,0,0,0,.54.393l2.126-1.519,2.126,1.519a.352.352,0,0,0,.54-.393l-.788-2.491,2.1-1.552a.352.352,0,0,0-.206-.635l-2.613-.02-.827-2.479A.352.352,0,0,0,361.9,164.567Z" transform="translate(-343.555 -160.317)" fill="#fc5"/>
        <path id="Path_2593" data-name="Path 2593" d="M361.9,164.567l-.827,2.479-2.613.02a.352.352,0,0,0-.206.635l2.1,1.552-.788,2.491a.352.352,0,0,0,.54.393l2.126-1.519,2.126,1.519a.352.352,0,0,0,.54-.393l-.788-2.491,2.1-1.552a.352.352,0,0,0-.206-.635l-2.613-.02-.827-2.479A.352.352,0,0,0,361.9,164.567Z" transform="translate(-354.105 -120.791)" fill="#fc5"/>
        <path id="Path_2596" data-name="Path 2596" d="M361.9,164.567l-.827,2.479-2.613.02a.352.352,0,0,0-.206.635l2.1,1.552-.788,2.491a.352.352,0,0,0,.54.393l2.126-1.519,2.126,1.519a.352.352,0,0,0,.54-.393l-.788-2.491,2.1-1.552a.352.352,0,0,0-.206-.635l-2.613-.02-.827-2.479A.352.352,0,0,0,361.9,164.567Z" transform="translate(-354.105 -149.256)" fill="#fc5"/>
        <path id="Path_2594" data-name="Path 2594" d="M361.9,164.567l-.827,2.479-2.613.02a.352.352,0,0,0-.206.635l2.1,1.552-.788,2.491a.352.352,0,0,0,.54.393l2.126-1.519,2.126,1.519a.352.352,0,0,0,.54-.393l-.788-2.491,2.1-1.552a.352.352,0,0,0-.206-.635l-2.613-.02-.827-2.479A.352.352,0,0,0,361.9,164.567Z" transform="translate(-303.085 -120.791)" fill="#fc5"/>
      </g>
      <path id="Path_2991" data-name="Path 2991" d="M74.186,8.625H73.124V6a6,6,0,0,0-12,0V8.625H60.062a.621.621,0,0,0-.621.621V20.888a.621.621,0,0,0,.621.621H74.186a.621.621,0,0,0,.621-.621V9.246A.621.621,0,0,0,74.186,8.625Zm-6.094,7.086v2.479a.392.392,0,0,1-.392.392H66.548a.392.392,0,0,1-.392-.392V15.711a1.676,1.676,0,1,1,1.936,0Zm2.168-7.086H63.988V6a3.136,3.136,0,0,1,6.271,0Z" transform="translate(-34.348 21.509)" fill="#fff"/>
    </g>
  </g>
</svg>
