<svg xmlns="http://www.w3.org/2000/svg" width="15" height="15" viewBox="0 0 15 15">
  <g id="earth" transform="translate(-1 -1)">
    <path id="Path_118628" data-name="Path 118628" d="M8.5,1a7.507,7.507,0,1,0,6.2,3.282A7.5,7.5,0,0,0,8.5,1Zm4.932,3.088H11.469A6.894,6.894,0,0,0,10.521,2.2,6.667,6.667,0,0,1,13.432,4.088ZM5.751,8.059a13.264,13.264,0,0,1,.441-3.088H10.8a13.264,13.264,0,0,1,.441,3.088Zm5.5.882a13.264,13.264,0,0,1-.441,3.088H6.193a13.264,13.264,0,0,1-.441-3.088ZM8.5,1.882c.737,0,1.482.816,2.016,2.206H6.484C7.018,2.7,7.763,1.882,8.5,1.882ZM6.479,2.2a6.894,6.894,0,0,0-.949,1.884H3.568A6.667,6.667,0,0,1,6.479,2.2ZM2.9,4.971H5.271a14.2,14.2,0,0,0-.4,3.088H1.9A6.631,6.631,0,0,1,2.9,4.971Zm0,7.059A6.581,6.581,0,0,1,1.9,8.941H4.869a14.762,14.762,0,0,0,.4,3.088Zm.666.882H5.531A6.894,6.894,0,0,0,6.479,14.8a6.667,6.667,0,0,1-2.912-1.884ZM8.5,15.118c-.737,0-1.482-.816-2.016-2.206h4.032C9.982,14.3,9.237,15.118,8.5,15.118Zm2.021-.322a6.831,6.831,0,0,0,.949-1.884h1.963A6.667,6.667,0,0,1,10.521,14.8ZM14.1,12.029H11.729a14.2,14.2,0,0,0,.4-3.088H15.1A6.631,6.631,0,0,1,14.1,12.029ZM12.131,8.059a14.762,14.762,0,0,0-.4-3.088H14.1A6.581,6.581,0,0,1,15.1,8.059Z" transform="translate(0)" fill="#fff"/>
  </g>
</svg>
